# xmcd
# 
# Track frame offsets:
#     150
#     16002
#     30250
#     43477
#     57995
#     73237
#     87682
#     102557
#     119952
#     137122
#     156237
#     176292
#     195077
#     207187
#     226462
#     237725
#     275795
#     302392
#     327940
#     348715
# 
# Disc length: 4664
# 
# Revision: 0
# Processed by: cddbd v1.5.2PL0 Copyright (c) Steve Scherf et al.
# Submitted via: fre:ac v1.0.31
# 
DISCID=30123614
DTITLE=John Lennon - Imagine Complete Sessions  Disc 1
DYEAR=0
DGENRE=
TTITLE0=Imagine Original Demo Version
TTITLE1=Imagine Take 1
TTITLE2=Imagine Take 2
TTITLE3=Imagine Take 3
TTITLE4=Imagine Alternate Take 1
TTITLE5=Imagine Alternate Take 2
TTITLE6=Imagine Version 2
TTITLE7=Cripped Inside Take 2
TTITLE8=Cripped Inside Take 17
TTITLE9=Jealous Guy Take 1
TTITLE10=Jealous Guy Take 2
TTITLE11=Jealous Guy Take 7
TTITLE12=Jealous Guy Vocal Overdub Session
TTITLE13=Jealous Guy Take 20
TTITLE14=It's So Hard Take 2
TTITLE15=It's So Hard Sax Overdub Session
TTITLE16=I Don't Want To Be A Soldier Take 1
TTITLE17=I Don't Want To Be A Soldier Take 2
TTITLE18=I Don't Want To Be A Soldier Sax Overdub Session
TTITLE19=I Don't Want To Be A Soldier New York Studio Chat
EXTD=
EXTT0=
EXTT1=
EXTT2=
EXTT3=
EXTT4=
EXTT5=
EXTT6=
EXTT7=
EXTT8=
EXTT9=
EXTT10=
EXTT11=
EXTT12=
EXTT13=
EXTT14=
EXTT15=
EXTT16=
EXTT17=
EXTT18=
EXTT19=
PLAYORDER=
